%
M48
M72
T01C0.01200
T02C0.02362
T03C0.02756
T04C0.03150
T05C0.03937
T06C0.04000
T07C0.06496
T08C0.11811
%
T01
X5050Y5406
X11349Y9343
X15500Y7450
X17900Y13050
X24735Y10918
X7500Y13050
X18436Y33359
X17100Y50650
X17648Y55406
X38908Y60524
X52688Y64855
X56848Y71157
X51274Y72442
X39500Y91450
X29853Y96351
X19500Y91056
X15500Y91450
X11500Y77850
X53475Y94382
X57154Y100766
X66700Y106650
X67006Y98930
X81104Y105230
X84184Y100302
X87044Y106206
X96300Y113444
X98700Y108250
X103500Y116250
X95526Y120581
X90483Y121154
X103500Y125050
X103500Y133050
X100300Y133050
X90978Y139233
X95500Y143450
X97900Y145850
X98700Y150650
X91500Y147450
X81822Y155012
X88903Y156828
X97100Y157050
X95500Y163450
X88903Y163914
X91808Y169043
X105100Y173050
X109100Y169050
X111500Y166650
X113100Y173050
X116300Y172250
X128300Y168250
X122373Y162886
X120300Y160250
X123500Y159450
X117900Y157850
X125100Y149850
X130247Y151075
X132609Y148319
X134578Y145563
X137333Y142807
X139696Y138083
X139696Y132178
X150719Y129815
X153900Y124250
X161100Y126650
X169100Y134650
X163500Y137850
X166700Y144250
X173900Y139450
X183500Y144250
X191700Y142650
X194382Y137875
X184300Y134650
X177900Y129050
X186700Y124250
X192300Y126650
X200200Y131150
X205100Y125050
X207500Y128250
X214635Y131995
X227500Y125050
X231822Y118004
X240300Y120250
X242700Y113850
X244300Y110650
X244300Y103450
X239500Y101050
X227500Y98650
X223160Y93989
X212500Y97650
X209300Y107050
X202700Y116250
X198700Y116250
X189100Y105850
X179500Y105850
X175916Y107768
X177491Y103437
X179066Y98713
X182335Y97395
X180641Y93595
X182609Y90445
X185100Y88250
X184184Y84933
X186700Y80250
X194235Y83695
X194000Y72650
X202700Y64250
X208135Y69795
X191500Y57850
X193900Y55450
X190700Y48250
X185365Y45170
X183500Y39450
X194026Y43595
X201100Y45850
X205900Y48250
X210700Y45850
X218700Y38650
X223500Y43450
X229900Y38650
X246700Y38650
X264300Y46650
X268300Y49050
X272335Y55795
X281535Y45795
X252900Y61750
X229000Y68350
X217635Y54495
X184300Y54650
X176704Y57374
X179853Y66823
X170011Y46744
X161743Y47532
X157100Y37050
X165100Y29050
X165100Y9850
X169900Y9850
X172300Y7450
X226671Y7774
X230700Y5050
X237100Y11450
X239500Y9050
X284971Y7374
X298357Y7374
X296389Y75878
X285100Y83450
X281735Y75995
X272135Y81395
X257100Y84250
X255500Y93050
X244300Y91450
X227500Y107250
X215130Y121356
X237727Y133752
X253100Y130650
X253900Y135450
X263635Y136195
X271979Y130996
X282700Y136250
X290700Y149050
X286152Y160918
X276310Y160918
X296782Y171548
X297570Y192414
X278278Y192807
X248357Y170760
X237727Y160524
X223160Y152650
X229100Y148250
X224735Y143595
X213318Y159737
X221100Y162650
X208961Y165624
X198700Y165850
X196782Y171941
X189900Y170650
X184281Y179641
X173100Y182650
X168456Y178437
X164300Y177050
X161900Y180250
X161900Y185050
X151113Y174304
X154700Y171450
X157900Y169050
X160300Y165850
X166700Y160250
X169900Y156250
X173800Y149950
X181900Y159450
X179500Y162650
X177100Y165850
X174700Y168250
X186700Y156250
X193100Y150650
X197100Y159450
X209381Y171941
X218700Y182650
X225916Y187296
X240877Y189658
X253081Y150681
X253100Y124250
X263711Y106587
X273035Y105695
X288515Y101469
X293633Y116430
X192300Y97050
X173948Y112493
X177100Y113850
X170011Y118004
X156300Y102650
X144420Y92414
X141483Y93770
X138959Y97897
X140089Y105406
X138415Y114467
X138555Y120897
X123500Y129050
X121100Y132250
X124300Y137050
X125100Y141050
X117900Y137850
X115500Y143450
X111500Y143450
X109900Y146650
X105900Y146650
X86700Y134650
X84300Y132250
X80300Y131450
X80300Y136250
X82700Y138650
X78278Y141233
X71585Y143595
X61900Y135450
X59500Y137850
X54700Y137850
X49100Y137050
X43500Y137850
X40300Y137050
X31822Y136508
X19617Y135721
X11349Y135327
X25916Y126272
X15811Y123673
X23567Y118723
X30700Y113850
X26700Y109850
X34908Y107606
X40877Y116036
X42037Y129184
X55837Y131784
X49100Y151450
X49100Y154650
X60956Y155406
X66700Y165050
X71500Y166650
X56635Y168495
X57100Y173850
X81100Y181850
X80300Y187450
X88121Y184540
X88918Y189915
X93100Y189850
X98700Y189050
X107500Y189850
X117900Y194650
X120300Y192250
X125900Y193850
X120300Y187450
X125900Y181050
X143633Y184933
X147963Y169973
X148300Y166650
X128278Y154225
X149100Y145050
X160956Y153437
X113900Y122650
X125916Y104225
X120404Y101075
X117648Y94382
X112530Y95957
X106625Y91233
X109381Y86115
X98419Y87096
X95801Y81004
X95995Y68004
X90089Y66036
X87500Y69050
X92300Y62650
X84971Y59343
X81428Y48319
X76300Y48250
X65100Y46650
X116342Y51981
X118707Y58015
X131822Y69098
X135759Y74697
X141664Y84146
X146700Y85850
X132259Y88697
X29900Y152250
X24341Y161311
X11335Y169095
X26700Y169850
X30700Y175450
X25835Y191195
X6335Y193195
X62235Y193295
X80300Y192250
X97900Y180250
X87035Y178195
X12624Y115511
T02
X49144Y122729
X65680Y136902
X86143Y149714
X152294Y155406
X158593Y148319
X155444Y138477
X152688Y164067
X254263Y189658
X258200Y141523
X256366Y98528
X65286Y92414
X33790Y71941
X18830Y43595
X13711Y36902
T03
X35751Y50296
X28680Y57367
T04
X12334Y61466
X12334Y71466
X12334Y51466
T05
X27097Y164855
X27097Y182178
T06
X193790Y181390
X203790Y181390
X213790Y181390
X223790Y181390
X233790Y181390
X243790Y181390
X253790Y181390
X263790Y181390
X273790Y181390
X272491Y34304
X262491Y34304
X252491Y34304
X242491Y34304
X232491Y34304
X222491Y34304
X212491Y34304
X202491Y34304
X192491Y34304
X182491Y34304
X172491Y34304
X162491Y34304
X152491Y34304
X142491Y34304
X132491Y34304
X122491Y34304
X112491Y34304
X102491Y34304
X92491Y34304
X82491Y34304
X72491Y34304
X62491Y34304
X52491Y34304
X42491Y34304
X32491Y34304
X32491Y24304
X42491Y24304
X52491Y24304
X62491Y24304
X72491Y24304
X82491Y24304
X92491Y24304
X102491Y24304
X112491Y24304
X122491Y24304
X132491Y24304
X142491Y24304
X152491Y24304
X162491Y24304
X172491Y24304
X182491Y24304
X192491Y24304
X202491Y24304
X212491Y24304
X222491Y24304
X232491Y24304
X242491Y24304
X252491Y24304
X262491Y24304
X272491Y24304
X272491Y14304
X262491Y14304
X252491Y14304
X242491Y14304
X232491Y14304
X222491Y14304
X212491Y14304
X202491Y14304
X192491Y14304
X182491Y14304
X172491Y14304
X162491Y14304
X152491Y14304
X142491Y14304
X132491Y14304
X122491Y14304
X112491Y14304
X102491Y14304
X92491Y14304
X82491Y14304
X72491Y14304
X62491Y14304
X52491Y14304
X42491Y14304
X32491Y14304
T07
X263355Y75734
X263355Y115104
T08
X289302Y183752
X54656Y186115
X15680Y22335
X289302Y22335
M30
