%
M48
M72
T01C0.01200
T02C0.02362
T03C0.02756
T04C0.03150
T05C0.03937
T06C0.04000
T07C0.06496
T08C0.11811
%
T01
X000505Y000541
X001135Y000934
X001550Y000745
X001790Y001305
X002474Y001092
X000750Y001305
X001844Y003336
X001710Y005065
X001765Y005541
X003891Y006052
X005269Y006486
X005685Y007116
X005127Y007244
X003950Y009145
X002985Y009635
X001950Y009106
X001550Y009145
X001150Y007785
X005348Y009438
X005715Y010077
X006670Y010665
X006701Y009893
X008110Y010523
X008418Y010030
X008704Y010621
X009630Y011344
X009870Y010825
X010350Y011625
X009553Y012058
X009048Y012115
X010350Y012505
X010350Y013305
X010030Y013305
X009098Y013923
X009550Y014345
X009790Y014585
X009870Y015065
X009150Y014745
X008182Y015501
X008890Y015683
X009710Y015705
X009550Y016345
X008890Y016391
X009181Y016904
X010510Y017305
X010910Y016905
X011150Y016665
X011310Y017305
X011630Y017225
X012830Y016825
X012237Y016289
X012030Y016025
X012350Y015945
X011790Y015785
X012510Y014985
X013025Y015108
X013261Y014832
X013458Y014556
X013733Y014281
X013970Y013808
X013970Y013218
X015072Y012982
X015390Y012425
X016110Y012665
X016910Y013465
X016350Y013785
X016670Y014425
X017390Y013945
X018350Y014425
X019170Y014265
X019438Y013788
X018430Y013465
X017790Y012905
X018670Y012425
X019230Y012665
X020020Y013115
X020510Y012505
X020750Y012825
X021464Y013200
X022750Y012505
X023182Y011800
X024030Y012025
X024270Y011385
X024430Y011065
X024430Y010345
X023950Y010105
X022750Y009865
X022316Y009399
X021250Y009765
X020930Y010705
X020270Y011625
X019870Y011625
X018910Y010585
X017950Y010585
X017592Y010777
X017749Y010344
X017907Y009871
X018234Y009740
X018064Y009360
X018261Y009044
X018510Y008825
X018418Y008493
X018670Y008025
X019424Y008370
X019400Y007265
X020270Y006425
X020814Y006980
X019150Y005785
X019390Y005545
X019070Y004825
X018536Y004517
X018350Y003945
X019403Y004360
X020110Y004585
X020590Y004825
X021070Y004585
X021870Y003865
X022350Y004345
X022990Y003865
X024670Y003865
X026430Y004665
X026830Y004905
X027234Y005580
X028154Y004580
X025290Y006175
X022900Y006835
X021764Y005450
X018430Y005465
X017670Y005737
X017985Y006682
X017001Y004674
X016174Y004753
X015710Y003705
X016510Y002905
X016510Y000985
X016990Y000985
X017230Y000745
X022667Y000777
X023070Y000505
X023710Y001145
X023950Y000905
X028497Y000737
X029836Y000737
X029639Y007588
X028510Y008345
X028174Y007600
X027214Y008140
X025710Y008425
X025550Y009305
X024430Y009145
X022750Y010725
X021513Y012136
X023773Y013375
X025310Y013065
X025390Y013545
X026364Y013620
X027198Y013100
X028270Y013625
X029070Y014905
X028615Y016092
X027631Y016092
X029678Y017155
X029757Y019241
X027828Y019281
X024836Y017076
X023773Y016052
X022316Y015265
X022910Y014825
X022474Y014360
X021332Y015974
X022110Y016265
X020896Y016562
X019870Y016585
X019678Y017194
X018990Y017065
X018428Y017964
X017310Y018265
X016846Y017844
X016430Y017705
X016190Y018025
X016190Y018505
X015111Y017430
X015470Y017145
X015790Y016905
X016030Y016585
X016670Y016025
X016990Y015625
X017380Y014995
X018190Y015945
X017950Y016265
X017710Y016585
X017470Y016825
X018670Y015625
X019310Y015065
X019710Y015945
X020938Y017194
X021870Y018265
X022592Y018730
X024088Y018966
X025308Y015068
X025310Y012425
X026371Y010659
X027304Y010570
X028852Y010147
X029363Y011643
X019230Y009705
X017395Y011249
X017710Y011385
X017001Y011800
X015630Y010265
X014442Y009241
X014148Y009377
X013896Y009790
X014009Y010541
X013842Y011447
X013856Y012090
X012350Y012905
X012110Y013225
X012430Y013705
X012510Y014105
X011790Y013785
X011550Y014345
X011150Y014345
X010990Y014665
X010590Y014665
X008670Y013465
X008430Y013225
X008030Y013145
X008030Y013625
X008270Y013865
X007828Y014123
X007158Y014360
X006190Y013545
X005950Y013785
X005470Y013785
X004910Y013705
X004350Y013785
X004030Y013705
X003182Y013651
X001962Y013572
X001135Y013533
X002592Y012627
X001581Y012367
X002357Y011872
X003070Y011385
X002670Y010985
X003491Y010761
X004088Y011604
X004204Y012918
X005584Y013178
X004910Y015145
X004910Y015465
X006096Y015541
X006670Y016505
X007150Y016665
X005664Y016850
X005710Y017385
X008110Y018185
X008030Y018745
X008812Y018454
X008892Y018992
X009310Y018985
X009870Y018905
X010750Y018985
X011790Y019465
X012030Y019225
X012590Y019385
X012030Y018745
X012590Y018105
X014363Y018493
X014796Y016997
X014830Y016665
X012828Y015422
X014910Y014505
X016096Y015344
X011390Y012265
X012592Y010422
X012040Y010108
X011765Y009438
X011253Y009596
X010662Y009123
X010938Y008612
X009842Y008710
X009580Y008100
X009600Y006800
X009009Y006604
X008750Y006905
X009230Y006265
X008497Y005934
X008143Y004832
X007630Y004825
X006510Y004665
X011634Y005198
X011871Y005802
X013182Y006910
X013576Y007470
X014166Y008415
X014670Y008585
X013226Y008870
X002990Y015225
X002434Y016131
X001134Y016910
X002670Y016985
X003070Y017545
X002584Y019120
X000634Y019320
X006224Y019330
X008030Y019225
X009790Y018025
X008704Y017820
X001262Y011551
T02
X004914Y012273
X006568Y013690
X008614Y014971
X015229Y015541
X015859Y014832
X015544Y013848
X015269Y016407
X025426Y018966
X025820Y014152
X025637Y009853
X006529Y009241
X003379Y007194
X001883Y004360
X001371Y003690
T03
X003575Y005030
X002868Y005737
T04
X001233Y006147
X001233Y007147
X001233Y005147
T05
X002710Y016486
X002710Y018218
T06
X019379Y018139
X020379Y018139
X021379Y018139
X022379Y018139
X023379Y018139
X024379Y018139
X025379Y018139
X026379Y018139
X027379Y018139
X027249Y003430
X026249Y003430
X025249Y003430
X024249Y003430
X023249Y003430
X022249Y003430
X021249Y003430
X020249Y003430
X019249Y003430
X018249Y003430
X017249Y003430
X016249Y003430
X015249Y003430
X014249Y003430
X013249Y003430
X012249Y003430
X011249Y003430
X010249Y003430
X009249Y003430
X008249Y003430
X007249Y003430
X006249Y003430
X005249Y003430
X004249Y003430
X003249Y003430
X003249Y002430
X004249Y002430
X005249Y002430
X006249Y002430
X007249Y002430
X008249Y002430
X009249Y002430
X010249Y002430
X011249Y002430
X012249Y002430
X013249Y002430
X014249Y002430
X015249Y002430
X016249Y002430
X017249Y002430
X018249Y002430
X019249Y002430
X020249Y002430
X021249Y002430
X022249Y002430
X023249Y002430
X024249Y002430
X025249Y002430
X026249Y002430
X027249Y002430
X027249Y001430
X026249Y001430
X025249Y001430
X024249Y001430
X023249Y001430
X022249Y001430
X021249Y001430
X020249Y001430
X019249Y001430
X018249Y001430
X017249Y001430
X016249Y001430
X015249Y001430
X014249Y001430
X013249Y001430
X012249Y001430
X011249Y001430
X010249Y001430
X009249Y001430
X008249Y001430
X007249Y001430
X006249Y001430
X005249Y001430
X004249Y001430
X003249Y001430
T07
X026336Y007573
X026336Y011510
T08
X028930Y018375
X005466Y018612
X001568Y002234
X028930Y002234
M30
