G75*
%MOIN*%
%OFA0B0*%
%FSLAX25Y25*%
%IPPOS*%
%LPD*%
%AMOC8*
5,1,8,0,0,1.08239X$1,22.5*
%
%ADD10C,0.00000*%
%ADD11C,0.00600*%
%ADD12C,0.00400*%
%ADD13C,0.01761*%
%ADD14C,0.00500*%
%ADD15C,0.00300*%
D10*
X0001900Y0002650D02*
X0001900Y0197532D01*
X0303081Y0197532D01*
X0303081Y0002650D01*
X0001900Y0002650D01*
X0009774Y0022335D02*
X0009776Y0022488D01*
X0009782Y0022642D01*
X0009792Y0022795D01*
X0009806Y0022947D01*
X0009824Y0023100D01*
X0009846Y0023251D01*
X0009871Y0023402D01*
X0009901Y0023553D01*
X0009935Y0023703D01*
X0009972Y0023851D01*
X0010013Y0023999D01*
X0010058Y0024145D01*
X0010107Y0024291D01*
X0010160Y0024435D01*
X0010216Y0024577D01*
X0010276Y0024718D01*
X0010340Y0024858D01*
X0010407Y0024996D01*
X0010478Y0025132D01*
X0010553Y0025266D01*
X0010630Y0025398D01*
X0010712Y0025528D01*
X0010796Y0025656D01*
X0010884Y0025782D01*
X0010975Y0025905D01*
X0011069Y0026026D01*
X0011167Y0026144D01*
X0011267Y0026260D01*
X0011371Y0026373D01*
X0011477Y0026484D01*
X0011586Y0026592D01*
X0011698Y0026697D01*
X0011812Y0026798D01*
X0011930Y0026897D01*
X0012049Y0026993D01*
X0012171Y0027086D01*
X0012296Y0027175D01*
X0012423Y0027262D01*
X0012552Y0027344D01*
X0012683Y0027424D01*
X0012816Y0027500D01*
X0012951Y0027573D01*
X0013088Y0027642D01*
X0013227Y0027707D01*
X0013367Y0027769D01*
X0013509Y0027827D01*
X0013652Y0027882D01*
X0013797Y0027933D01*
X0013943Y0027980D01*
X0014090Y0028023D01*
X0014238Y0028062D01*
X0014387Y0028098D01*
X0014537Y0028129D01*
X0014688Y0028157D01*
X0014839Y0028181D01*
X0014992Y0028201D01*
X0015144Y0028217D01*
X0015297Y0028229D01*
X0015450Y0028237D01*
X0015603Y0028241D01*
X0015757Y0028241D01*
X0015910Y0028237D01*
X0016063Y0028229D01*
X0016216Y0028217D01*
X0016368Y0028201D01*
X0016521Y0028181D01*
X0016672Y0028157D01*
X0016823Y0028129D01*
X0016973Y0028098D01*
X0017122Y0028062D01*
X0017270Y0028023D01*
X0017417Y0027980D01*
X0017563Y0027933D01*
X0017708Y0027882D01*
X0017851Y0027827D01*
X0017993Y0027769D01*
X0018133Y0027707D01*
X0018272Y0027642D01*
X0018409Y0027573D01*
X0018544Y0027500D01*
X0018677Y0027424D01*
X0018808Y0027344D01*
X0018937Y0027262D01*
X0019064Y0027175D01*
X0019189Y0027086D01*
X0019311Y0026993D01*
X0019430Y0026897D01*
X0019548Y0026798D01*
X0019662Y0026697D01*
X0019774Y0026592D01*
X0019883Y0026484D01*
X0019989Y0026373D01*
X0020093Y0026260D01*
X0020193Y0026144D01*
X0020291Y0026026D01*
X0020385Y0025905D01*
X0020476Y0025782D01*
X0020564Y0025656D01*
X0020648Y0025528D01*
X0020730Y0025398D01*
X0020807Y0025266D01*
X0020882Y0025132D01*
X0020953Y0024996D01*
X0021020Y0024858D01*
X0021084Y0024718D01*
X0021144Y0024577D01*
X0021200Y0024435D01*
X0021253Y0024291D01*
X0021302Y0024145D01*
X0021347Y0023999D01*
X0021388Y0023851D01*
X0021425Y0023703D01*
X0021459Y0023553D01*
X0021489Y0023402D01*
X0021514Y0023251D01*
X0021536Y0023100D01*
X0021554Y0022947D01*
X0021568Y0022795D01*
X0021578Y0022642D01*
X0021584Y0022488D01*
X0021586Y0022335D01*
X0021584Y0022182D01*
X0021578Y0022028D01*
X0021568Y0021875D01*
X0021554Y0021723D01*
X0021536Y0021570D01*
X0021514Y0021419D01*
X0021489Y0021268D01*
X0021459Y0021117D01*
X0021425Y0020967D01*
X0021388Y0020819D01*
X0021347Y0020671D01*
X0021302Y0020525D01*
X0021253Y0020379D01*
X0021200Y0020235D01*
X0021144Y0020093D01*
X0021084Y0019952D01*
X0021020Y0019812D01*
X0020953Y0019674D01*
X0020882Y0019538D01*
X0020807Y0019404D01*
X0020730Y0019272D01*
X0020648Y0019142D01*
X0020564Y0019014D01*
X0020476Y0018888D01*
X0020385Y0018765D01*
X0020291Y0018644D01*
X0020193Y0018526D01*
X0020093Y0018410D01*
X0019989Y0018297D01*
X0019883Y0018186D01*
X0019774Y0018078D01*
X0019662Y0017973D01*
X0019548Y0017872D01*
X0019430Y0017773D01*
X0019311Y0017677D01*
X0019189Y0017584D01*
X0019064Y0017495D01*
X0018937Y0017408D01*
X0018808Y0017326D01*
X0018677Y0017246D01*
X0018544Y0017170D01*
X0018409Y0017097D01*
X0018272Y0017028D01*
X0018133Y0016963D01*
X0017993Y0016901D01*
X0017851Y0016843D01*
X0017708Y0016788D01*
X0017563Y0016737D01*
X0017417Y0016690D01*
X0017270Y0016647D01*
X0017122Y0016608D01*
X0016973Y0016572D01*
X0016823Y0016541D01*
X0016672Y0016513D01*
X0016521Y0016489D01*
X0016368Y0016469D01*
X0016216Y0016453D01*
X0016063Y0016441D01*
X0015910Y0016433D01*
X0015757Y0016429D01*
X0015603Y0016429D01*
X0015450Y0016433D01*
X0015297Y0016441D01*
X0015144Y0016453D01*
X0014992Y0016469D01*
X0014839Y0016489D01*
X0014688Y0016513D01*
X0014537Y0016541D01*
X0014387Y0016572D01*
X0014238Y0016608D01*
X0014090Y0016647D01*
X0013943Y0016690D01*
X0013797Y0016737D01*
X0013652Y0016788D01*
X0013509Y0016843D01*
X0013367Y0016901D01*
X0013227Y0016963D01*
X0013088Y0017028D01*
X0012951Y0017097D01*
X0012816Y0017170D01*
X0012683Y0017246D01*
X0012552Y0017326D01*
X0012423Y0017408D01*
X0012296Y0017495D01*
X0012171Y0017584D01*
X0012049Y0017677D01*
X0011930Y0017773D01*
X0011812Y0017872D01*
X0011698Y0017973D01*
X0011586Y0018078D01*
X0011477Y0018186D01*
X0011371Y0018297D01*
X0011267Y0018410D01*
X0011167Y0018526D01*
X0011069Y0018644D01*
X0010975Y0018765D01*
X0010884Y0018888D01*
X0010796Y0019014D01*
X0010712Y0019142D01*
X0010630Y0019272D01*
X0010553Y0019404D01*
X0010478Y0019538D01*
X0010407Y0019674D01*
X0010340Y0019812D01*
X0010276Y0019952D01*
X0010216Y0020093D01*
X0010160Y0020235D01*
X0010107Y0020379D01*
X0010058Y0020525D01*
X0010013Y0020671D01*
X0009972Y0020819D01*
X0009935Y0020967D01*
X0009901Y0021117D01*
X0009871Y0021268D01*
X0009846Y0021419D01*
X0009824Y0021570D01*
X0009806Y0021723D01*
X0009792Y0021875D01*
X0009782Y0022028D01*
X0009776Y0022182D01*
X0009774Y0022335D01*
X0025128Y0164855D02*
X0025130Y0164943D01*
X0025136Y0165031D01*
X0025146Y0165119D01*
X0025160Y0165207D01*
X0025177Y0165293D01*
X0025199Y0165379D01*
X0025224Y0165463D01*
X0025254Y0165547D01*
X0025286Y0165629D01*
X0025323Y0165709D01*
X0025363Y0165788D01*
X0025407Y0165865D01*
X0025454Y0165940D01*
X0025504Y0166012D01*
X0025558Y0166083D01*
X0025614Y0166150D01*
X0025674Y0166216D01*
X0025736Y0166278D01*
X0025802Y0166338D01*
X0025869Y0166394D01*
X0025940Y0166448D01*
X0026012Y0166498D01*
X0026087Y0166545D01*
X0026164Y0166589D01*
X0026243Y0166629D01*
X0026323Y0166666D01*
X0026405Y0166698D01*
X0026489Y0166728D01*
X0026573Y0166753D01*
X0026659Y0166775D01*
X0026745Y0166792D01*
X0026833Y0166806D01*
X0026921Y0166816D01*
X0027009Y0166822D01*
X0027097Y0166824D01*
X0027185Y0166822D01*
X0027273Y0166816D01*
X0027361Y0166806D01*
X0027449Y0166792D01*
X0027535Y0166775D01*
X0027621Y0166753D01*
X0027705Y0166728D01*
X0027789Y0166698D01*
X0027871Y0166666D01*
X0027951Y0166629D01*
X0028030Y0166589D01*
X0028107Y0166545D01*
X0028182Y0166498D01*
X0028254Y0166448D01*
X0028325Y0166394D01*
X0028392Y0166338D01*
X0028458Y0166278D01*
X0028520Y0166216D01*
X0028580Y0166150D01*
X0028636Y0166083D01*
X0028690Y0166012D01*
X0028740Y0165940D01*
X0028787Y0165865D01*
X0028831Y0165788D01*
X0028871Y0165709D01*
X0028908Y0165629D01*
X0028940Y0165547D01*
X0028970Y0165463D01*
X0028995Y0165379D01*
X0029017Y0165293D01*
X0029034Y0165207D01*
X0029048Y0165119D01*
X0029058Y0165031D01*
X0029064Y0164943D01*
X0029066Y0164855D01*
X0029064Y0164767D01*
X0029058Y0164679D01*
X0029048Y0164591D01*
X0029034Y0164503D01*
X0029017Y0164417D01*
X0028995Y0164331D01*
X0028970Y0164247D01*
X0028940Y0164163D01*
X0028908Y0164081D01*
X0028871Y0164001D01*
X0028831Y0163922D01*
X0028787Y0163845D01*
X0028740Y0163770D01*
X0028690Y0163698D01*
X0028636Y0163627D01*
X0028580Y0163560D01*
X0028520Y0163494D01*
X0028458Y0163432D01*
X0028392Y0163372D01*
X0028325Y0163316D01*
X0028254Y0163262D01*
X0028182Y0163212D01*
X0028107Y0163165D01*
X0028030Y0163121D01*
X0027951Y0163081D01*
X0027871Y0163044D01*
X0027789Y0163012D01*
X0027705Y0162982D01*
X0027621Y0162957D01*
X0027535Y0162935D01*
X0027449Y0162918D01*
X0027361Y0162904D01*
X0027273Y0162894D01*
X0027185Y0162888D01*
X0027097Y0162886D01*
X0027009Y0162888D01*
X0026921Y0162894D01*
X0026833Y0162904D01*
X0026745Y0162918D01*
X0026659Y0162935D01*
X0026573Y0162957D01*
X0026489Y0162982D01*
X0026405Y0163012D01*
X0026323Y0163044D01*
X0026243Y0163081D01*
X0026164Y0163121D01*
X0026087Y0163165D01*
X0026012Y0163212D01*
X0025940Y0163262D01*
X0025869Y0163316D01*
X0025802Y0163372D01*
X0025736Y0163432D01*
X0025674Y0163494D01*
X0025614Y0163560D01*
X0025558Y0163627D01*
X0025504Y0163698D01*
X0025454Y0163770D01*
X0025407Y0163845D01*
X0025363Y0163922D01*
X0025323Y0164001D01*
X0025286Y0164081D01*
X0025254Y0164163D01*
X0025224Y0164247D01*
X0025199Y0164331D01*
X0025177Y0164417D01*
X0025160Y0164503D01*
X0025146Y0164591D01*
X0025136Y0164679D01*
X0025130Y0164767D01*
X0025128Y0164855D01*
X0025128Y0182178D02*
X0025130Y0182266D01*
X0025136Y0182354D01*
X0025146Y0182442D01*
X0025160Y0182530D01*
X0025177Y0182616D01*
X0025199Y0182702D01*
X0025224Y0182786D01*
X0025254Y0182870D01*
X0025286Y0182952D01*
X0025323Y0183032D01*
X0025363Y0183111D01*
X0025407Y0183188D01*
X0025454Y0183263D01*
X0025504Y0183335D01*
X0025558Y0183406D01*
X0025614Y0183473D01*
X0025674Y0183539D01*
X0025736Y0183601D01*
X0025802Y0183661D01*
X0025869Y0183717D01*
X0025940Y0183771D01*
X0026012Y0183821D01*
X0026087Y0183868D01*
X0026164Y0183912D01*
X0026243Y0183952D01*
X0026323Y0183989D01*
X0026405Y0184021D01*
X0026489Y0184051D01*
X0026573Y0184076D01*
X0026659Y0184098D01*
X0026745Y0184115D01*
X0026833Y0184129D01*
X0026921Y0184139D01*
X0027009Y0184145D01*
X0027097Y0184147D01*
X0027185Y0184145D01*
X0027273Y0184139D01*
X0027361Y0184129D01*
X0027449Y0184115D01*
X0027535Y0184098D01*
X0027621Y0184076D01*
X0027705Y0184051D01*
X0027789Y0184021D01*
X0027871Y0183989D01*
X0027951Y0183952D01*
X0028030Y0183912D01*
X0028107Y0183868D01*
X0028182Y0183821D01*
X0028254Y0183771D01*
X0028325Y0183717D01*
X0028392Y0183661D01*
X0028458Y0183601D01*
X0028520Y0183539D01*
X0028580Y0183473D01*
X0028636Y0183406D01*
X0028690Y0183335D01*
X0028740Y0183263D01*
X0028787Y0183188D01*
X0028831Y0183111D01*
X0028871Y0183032D01*
X0028908Y0182952D01*
X0028940Y0182870D01*
X0028970Y0182786D01*
X0028995Y0182702D01*
X0029017Y0182616D01*
X0029034Y0182530D01*
X0029048Y0182442D01*
X0029058Y0182354D01*
X0029064Y0182266D01*
X0029066Y0182178D01*
X0029064Y0182090D01*
X0029058Y0182002D01*
X0029048Y0181914D01*
X0029034Y0181826D01*
X0029017Y0181740D01*
X0028995Y0181654D01*
X0028970Y0181570D01*
X0028940Y0181486D01*
X0028908Y0181404D01*
X0028871Y0181324D01*
X0028831Y0181245D01*
X0028787Y0181168D01*
X0028740Y0181093D01*
X0028690Y0181021D01*
X0028636Y0180950D01*
X0028580Y0180883D01*
X0028520Y0180817D01*
X0028458Y0180755D01*
X0028392Y0180695D01*
X0028325Y0180639D01*
X0028254Y0180585D01*
X0028182Y0180535D01*
X0028107Y0180488D01*
X0028030Y0180444D01*
X0027951Y0180404D01*
X0027871Y0180367D01*
X0027789Y0180335D01*
X0027705Y0180305D01*
X0027621Y0180280D01*
X0027535Y0180258D01*
X0027449Y0180241D01*
X0027361Y0180227D01*
X0027273Y0180217D01*
X0027185Y0180211D01*
X0027097Y0180209D01*
X0027009Y0180211D01*
X0026921Y0180217D01*
X0026833Y0180227D01*
X0026745Y0180241D01*
X0026659Y0180258D01*
X0026573Y0180280D01*
X0026489Y0180305D01*
X0026405Y0180335D01*
X0026323Y0180367D01*
X0026243Y0180404D01*
X0026164Y0180444D01*
X0026087Y0180488D01*
X0026012Y0180535D01*
X0025940Y0180585D01*
X0025869Y0180639D01*
X0025802Y0180695D01*
X0025736Y0180755D01*
X0025674Y0180817D01*
X0025614Y0180883D01*
X0025558Y0180950D01*
X0025504Y0181021D01*
X0025454Y0181093D01*
X0025407Y0181168D01*
X0025363Y0181245D01*
X0025323Y0181324D01*
X0025286Y0181404D01*
X0025254Y0181486D01*
X0025224Y0181570D01*
X0025199Y0181654D01*
X0025177Y0181740D01*
X0025160Y0181826D01*
X0025146Y0181914D01*
X0025136Y0182002D01*
X0025130Y0182090D01*
X0025128Y0182178D01*
X0048750Y0186115D02*
X0048752Y0186268D01*
X0048758Y0186422D01*
X0048768Y0186575D01*
X0048782Y0186727D01*
X0048800Y0186880D01*
X0048822Y0187031D01*
X0048847Y0187182D01*
X0048877Y0187333D01*
X0048911Y0187483D01*
X0048948Y0187631D01*
X0048989Y0187779D01*
X0049034Y0187925D01*
X0049083Y0188071D01*
X0049136Y0188215D01*
X0049192Y0188357D01*
X0049252Y0188498D01*
X0049316Y0188638D01*
X0049383Y0188776D01*
X0049454Y0188912D01*
X0049529Y0189046D01*
X0049606Y0189178D01*
X0049688Y0189308D01*
X0049772Y0189436D01*
X0049860Y0189562D01*
X0049951Y0189685D01*
X0050045Y0189806D01*
X0050143Y0189924D01*
X0050243Y0190040D01*
X0050347Y0190153D01*
X0050453Y0190264D01*
X0050562Y0190372D01*
X0050674Y0190477D01*
X0050788Y0190578D01*
X0050906Y0190677D01*
X0051025Y0190773D01*
X0051147Y0190866D01*
X0051272Y0190955D01*
X0051399Y0191042D01*
X0051528Y0191124D01*
X0051659Y0191204D01*
X0051792Y0191280D01*
X0051927Y0191353D01*
X0052064Y0191422D01*
X0052203Y0191487D01*
X0052343Y0191549D01*
X0052485Y0191607D01*
X0052628Y0191662D01*
X0052773Y0191713D01*
X0052919Y0191760D01*
X0053066Y0191803D01*
X0053214Y0191842D01*
X0053363Y0191878D01*
X0053513Y0191909D01*
X0053664Y0191937D01*
X0053815Y0191961D01*
X0053968Y0191981D01*
X0054120Y0191997D01*
X0054273Y0192009D01*
X0054426Y0192017D01*
X0054579Y0192021D01*
X0054733Y0192021D01*
X0054886Y0192017D01*
X0055039Y0192009D01*
X0055192Y0191997D01*
X0055344Y0191981D01*
X0055497Y0191961D01*
X0055648Y0191937D01*
X0055799Y0191909D01*
X0055949Y0191878D01*
X0056098Y0191842D01*
X0056246Y0191803D01*
X0056393Y0191760D01*
X0056539Y0191713D01*
X0056684Y0191662D01*
X0056827Y0191607D01*
X0056969Y0191549D01*
X0057109Y0191487D01*
X0057248Y0191422D01*
X0057385Y0191353D01*
X0057520Y0191280D01*
X0057653Y0191204D01*
X0057784Y0191124D01*
X0057913Y0191042D01*
X0058040Y0190955D01*
X0058165Y0190866D01*
X0058287Y0190773D01*
X0058406Y0190677D01*
X0058524Y0190578D01*
X0058638Y0190477D01*
X0058750Y0190372D01*
X0058859Y0190264D01*
X0058965Y0190153D01*
X0059069Y0190040D01*
X0059169Y0189924D01*
X0059267Y0189806D01*
X0059361Y0189685D01*
X0059452Y0189562D01*
X0059540Y0189436D01*
X0059624Y0189308D01*
X0059706Y0189178D01*
X0059783Y0189046D01*
X0059858Y0188912D01*
X0059929Y0188776D01*
X0059996Y0188638D01*
X0060060Y0188498D01*
X0060120Y0188357D01*
X0060176Y0188215D01*
X0060229Y0188071D01*
X0060278Y0187925D01*
X0060323Y0187779D01*
X0060364Y0187631D01*
X0060401Y0187483D01*
X0060435Y0187333D01*
X0060465Y0187182D01*
X0060490Y0187031D01*
X0060512Y0186880D01*
X0060530Y0186727D01*
X0060544Y0186575D01*
X0060554Y0186422D01*
X0060560Y0186268D01*
X0060562Y0186115D01*
X0060560Y0185962D01*
X0060554Y0185808D01*
X0060544Y0185655D01*
X0060530Y0185503D01*
X0060512Y0185350D01*
X0060490Y0185199D01*
X0060465Y0185048D01*
X0060435Y0184897D01*
X0060401Y0184747D01*
X0060364Y0184599D01*
X0060323Y0184451D01*
X0060278Y0184305D01*
X0060229Y0184159D01*
X0060176Y0184015D01*
X0060120Y0183873D01*
X0060060Y0183732D01*
X0059996Y0183592D01*
X0059929Y0183454D01*
X0059858Y0183318D01*
X0059783Y0183184D01*
X0059706Y0183052D01*
X0059624Y0182922D01*
X0059540Y0182794D01*
X0059452Y0182668D01*
X0059361Y0182545D01*
X0059267Y0182424D01*
X0059169Y0182306D01*
X0059069Y0182190D01*
X0058965Y0182077D01*
X0058859Y0181966D01*
X0058750Y0181858D01*
X0058638Y0181753D01*
X0058524Y0181652D01*
X0058406Y0181553D01*
X0058287Y0181457D01*
X0058165Y0181364D01*
X0058040Y0181275D01*
X0057913Y0181188D01*
X0057784Y0181106D01*
X0057653Y0181026D01*
X0057520Y0180950D01*
X0057385Y0180877D01*
X0057248Y0180808D01*
X0057109Y0180743D01*
X0056969Y0180681D01*
X0056827Y0180623D01*
X0056684Y0180568D01*
X0056539Y0180517D01*
X0056393Y0180470D01*
X0056246Y0180427D01*
X0056098Y0180388D01*
X0055949Y0180352D01*
X0055799Y0180321D01*
X0055648Y0180293D01*
X0055497Y0180269D01*
X0055344Y0180249D01*
X0055192Y0180233D01*
X0055039Y0180221D01*
X0054886Y0180213D01*
X0054733Y0180209D01*
X0054579Y0180209D01*
X0054426Y0180213D01*
X0054273Y0180221D01*
X0054120Y0180233D01*
X0053968Y0180249D01*
X0053815Y0180269D01*
X0053664Y0180293D01*
X0053513Y0180321D01*
X0053363Y0180352D01*
X0053214Y0180388D01*
X0053066Y0180427D01*
X0052919Y0180470D01*
X0052773Y0180517D01*
X0052628Y0180568D01*
X0052485Y0180623D01*
X0052343Y0180681D01*
X0052203Y0180743D01*
X0052064Y0180808D01*
X0051927Y0180877D01*
X0051792Y0180950D01*
X0051659Y0181026D01*
X0051528Y0181106D01*
X0051399Y0181188D01*
X0051272Y0181275D01*
X0051147Y0181364D01*
X0051025Y0181457D01*
X0050906Y0181553D01*
X0050788Y0181652D01*
X0050674Y0181753D01*
X0050562Y0181858D01*
X0050453Y0181966D01*
X0050347Y0182077D01*
X0050243Y0182190D01*
X0050143Y0182306D01*
X0050045Y0182424D01*
X0049951Y0182545D01*
X0049860Y0182668D01*
X0049772Y0182794D01*
X0049688Y0182922D01*
X0049606Y0183052D01*
X0049529Y0183184D01*
X0049454Y0183318D01*
X0049383Y0183454D01*
X0049316Y0183592D01*
X0049252Y0183732D01*
X0049192Y0183873D01*
X0049136Y0184015D01*
X0049083Y0184159D01*
X0049034Y0184305D01*
X0048989Y0184451D01*
X0048948Y0184599D01*
X0048911Y0184747D01*
X0048877Y0184897D01*
X0048847Y0185048D01*
X0048822Y0185199D01*
X0048800Y0185350D01*
X0048782Y0185503D01*
X0048768Y0185655D01*
X0048758Y0185808D01*
X0048752Y0185962D01*
X0048750Y0186115D01*
X0260107Y0115104D02*
X0260109Y0115217D01*
X0260115Y0115331D01*
X0260125Y0115444D01*
X0260139Y0115556D01*
X0260156Y0115668D01*
X0260178Y0115779D01*
X0260203Y0115890D01*
X0260233Y0115999D01*
X0260266Y0116108D01*
X0260303Y0116215D01*
X0260344Y0116321D01*
X0260388Y0116425D01*
X0260436Y0116528D01*
X0260487Y0116629D01*
X0260542Y0116728D01*
X0260601Y0116825D01*
X0260662Y0116920D01*
X0260727Y0117013D01*
X0260796Y0117104D01*
X0260867Y0117192D01*
X0260941Y0117277D01*
X0261019Y0117360D01*
X0261099Y0117440D01*
X0261182Y0117518D01*
X0261267Y0117592D01*
X0261355Y0117663D01*
X0261446Y0117732D01*
X0261539Y0117797D01*
X0261634Y0117858D01*
X0261731Y0117917D01*
X0261830Y0117972D01*
X0261931Y0118023D01*
X0262034Y0118071D01*
X0262138Y0118115D01*
X0262244Y0118156D01*
X0262351Y0118193D01*
X0262460Y0118226D01*
X0262569Y0118256D01*
X0262680Y0118281D01*
X0262791Y0118303D01*
X0262903Y0118320D01*
X0263015Y0118334D01*
X0263128Y0118344D01*
X0263242Y0118350D01*
X0263355Y0118352D01*
X0263468Y0118350D01*
X0263582Y0118344D01*
X0263695Y0118334D01*
X0263807Y0118320D01*
X0263919Y0118303D01*
X0264030Y0118281D01*
X0264141Y0118256D01*
X0264250Y0118226D01*
X0264359Y0118193D01*
X0264466Y0118156D01*
X0264572Y0118115D01*
X0264676Y0118071D01*
X0264779Y0118023D01*
X0264880Y0117972D01*
X0264979Y0117917D01*
X0265076Y0117858D01*
X0265171Y0117797D01*
X0265264Y0117732D01*
X0265355Y0117663D01*
X0265443Y0117592D01*
X0265528Y0117518D01*
X0265611Y0117440D01*
X0265691Y0117360D01*
X0265769Y0117277D01*
X0265843Y0117192D01*
X0265914Y0117104D01*
X0265983Y0117013D01*
X0266048Y0116920D01*
X0266109Y0116825D01*
X0266168Y0116728D01*
X0266223Y0116629D01*
X0266274Y0116528D01*
X0266322Y0116425D01*
X0266366Y0116321D01*
X0266407Y0116215D01*
X0266444Y0116108D01*
X0266477Y0115999D01*
X0266507Y0115890D01*
X0266532Y0115779D01*
X0266554Y0115668D01*
X0266571Y0115556D01*
X0266585Y0115444D01*
X0266595Y0115331D01*
X0266601Y0115217D01*
X0266603Y0115104D01*
X0266601Y0114991D01*
X0266595Y0114877D01*
X0266585Y0114764D01*
X0266571Y0114652D01*
X0266554Y0114540D01*
X0266532Y0114429D01*
X0266507Y0114318D01*
X0266477Y0114209D01*
X0266444Y0114100D01*
X0266407Y0113993D01*
X0266366Y0113887D01*
X0266322Y0113783D01*
X0266274Y0113680D01*
X0266223Y0113579D01*
X0266168Y0113480D01*
X0266109Y0113383D01*
X0266048Y0113288D01*
X0265983Y0113195D01*
X0265914Y0113104D01*
X0265843Y0113016D01*
X0265769Y0112931D01*
X0265691Y0112848D01*
X0265611Y0112768D01*
X0265528Y0112690D01*
X0265443Y0112616D01*
X0265355Y0112545D01*
X0265264Y0112476D01*
X0265171Y0112411D01*
X0265076Y0112350D01*
X0264979Y0112291D01*
X0264880Y0112236D01*
X0264779Y0112185D01*
X0264676Y0112137D01*
X0264572Y0112093D01*
X0264466Y0112052D01*
X0264359Y0112015D01*
X0264250Y0111982D01*
X0264141Y0111952D01*
X0264030Y0111927D01*
X0263919Y0111905D01*
X0263807Y0111888D01*
X0263695Y0111874D01*
X0263582Y0111864D01*
X0263468Y0111858D01*
X0263355Y0111856D01*
X0263242Y0111858D01*
X0263128Y0111864D01*
X0263015Y0111874D01*
X0262903Y0111888D01*
X0262791Y0111905D01*
X0262680Y0111927D01*
X0262569Y0111952D01*
X0262460Y0111982D01*
X0262351Y0112015D01*
X0262244Y0112052D01*
X0262138Y0112093D01*
X0262034Y0112137D01*
X0261931Y0112185D01*
X0261830Y0112236D01*
X0261731Y0112291D01*
X0261634Y0112350D01*
X0261539Y0112411D01*
X0261446Y0112476D01*
X0261355Y0112545D01*
X0261267Y0112616D01*
X0261182Y0112690D01*
X0261099Y0112768D01*
X0261019Y0112848D01*
X0260941Y0112931D01*
X0260867Y0113016D01*
X0260796Y0113104D01*
X0260727Y0113195D01*
X0260662Y0113288D01*
X0260601Y0113383D01*
X0260542Y0113480D01*
X0260487Y0113579D01*
X0260436Y0113680D01*
X0260388Y0113783D01*
X0260344Y0113887D01*
X0260303Y0113993D01*
X0260266Y0114100D01*
X0260233Y0114209D01*
X0260203Y0114318D01*
X0260178Y0114429D01*
X0260156Y0114540D01*
X0260139Y0114652D01*
X0260125Y0114764D01*
X0260115Y0114877D01*
X0260109Y0114991D01*
X0260107Y0115104D01*
X0260107Y0075734D02*
X0260109Y0075847D01*
X0260115Y0075961D01*
X0260125Y0076074D01*
X0260139Y0076186D01*
X0260156Y0076298D01*
X0260178Y0076409D01*
X0260203Y0076520D01*
X0260233Y0076629D01*
X0260266Y0076738D01*
X0260303Y0076845D01*
X0260344Y0076951D01*
X0260388Y0077055D01*
X0260436Y0077158D01*
X0260487Y0077259D01*
X0260542Y0077358D01*
X0260601Y0077455D01*
X0260662Y0077550D01*
X0260727Y0077643D01*
X0260796Y0077734D01*
X0260867Y0077822D01*
X0260941Y0077907D01*
X0261019Y0077990D01*
X0261099Y0078070D01*
X0261182Y0078148D01*
X0261267Y0078222D01*
X0261355Y0078293D01*
X0261446Y0078362D01*
X0261539Y0078427D01*
X0261634Y0078488D01*
X0261731Y0078547D01*
X0261830Y0078602D01*
X0261931Y0078653D01*
X0262034Y0078701D01*
X0262138Y0078745D01*
X0262244Y0078786D01*
X0262351Y0078823D01*
X0262460Y0078856D01*
X0262569Y0078886D01*
X0262680Y0078911D01*
X0262791Y0078933D01*
X0262903Y0078950D01*
X0263015Y0078964D01*
X0263128Y0078974D01*
X0263242Y0078980D01*
X0263355Y0078982D01*
X0263468Y0078980D01*
X0263582Y0078974D01*
X0263695Y0078964D01*
X0263807Y0078950D01*
X0263919Y0078933D01*
X0264030Y0078911D01*
X0264141Y0078886D01*
X0264250Y0078856D01*
X0264359Y0078823D01*
X0264466Y0078786D01*
X0264572Y0078745D01*
X0264676Y0078701D01*
X0264779Y0078653D01*
X0264880Y0078602D01*
X0264979Y0078547D01*
X0265076Y0078488D01*
X0265171Y0078427D01*
X0265264Y0078362D01*
X0265355Y0078293D01*
X0265443Y0078222D01*
X0265528Y0078148D01*
X0265611Y0078070D01*
X0265691Y0077990D01*
X0265769Y0077907D01*
X0265843Y0077822D01*
X0265914Y0077734D01*
X0265983Y0077643D01*
X0266048Y0077550D01*
X0266109Y0077455D01*
X0266168Y0077358D01*
X0266223Y0077259D01*
X0266274Y0077158D01*
X0266322Y0077055D01*
X0266366Y0076951D01*
X0266407Y0076845D01*
X0266444Y0076738D01*
X0266477Y0076629D01*
X0266507Y0076520D01*
X0266532Y0076409D01*
X0266554Y0076298D01*
X0266571Y0076186D01*
X0266585Y0076074D01*
X0266595Y0075961D01*
X0266601Y0075847D01*
X0266603Y0075734D01*
X0266601Y0075621D01*
X0266595Y0075507D01*
X0266585Y0075394D01*
X0266571Y0075282D01*
X0266554Y0075170D01*
X0266532Y0075059D01*
X0266507Y0074948D01*
X0266477Y0074839D01*
X0266444Y0074730D01*
X0266407Y0074623D01*
X0266366Y0074517D01*
X0266322Y0074413D01*
X0266274Y0074310D01*
X0266223Y0074209D01*
X0266168Y0074110D01*
X0266109Y0074013D01*
X0266048Y0073918D01*
X0265983Y0073825D01*
X0265914Y0073734D01*
X0265843Y0073646D01*
X0265769Y0073561D01*
X0265691Y0073478D01*
X0265611Y0073398D01*
X0265528Y0073320D01*
X0265443Y0073246D01*
X0265355Y0073175D01*
X0265264Y0073106D01*
X0265171Y0073041D01*
X0265076Y0072980D01*
X0264979Y0072921D01*
X0264880Y0072866D01*
X0264779Y0072815D01*
X0264676Y0072767D01*
X0264572Y0072723D01*
X0264466Y0072682D01*
X0264359Y0072645D01*
X0264250Y0072612D01*
X0264141Y0072582D01*
X0264030Y0072557D01*
X0263919Y0072535D01*
X0263807Y0072518D01*
X0263695Y0072504D01*
X0263582Y0072494D01*
X0263468Y0072488D01*
X0263355Y0072486D01*
X0263242Y0072488D01*
X0263128Y0072494D01*
X0263015Y0072504D01*
X0262903Y0072518D01*
X0262791Y0072535D01*
X0262680Y0072557D01*
X0262569Y0072582D01*
X0262460Y0072612D01*
X0262351Y0072645D01*
X0262244Y0072682D01*
X0262138Y0072723D01*
X0262034Y0072767D01*
X0261931Y0072815D01*
X0261830Y0072866D01*
X0261731Y0072921D01*
X0261634Y0072980D01*
X0261539Y0073041D01*
X0261446Y0073106D01*
X0261355Y0073175D01*
X0261267Y0073246D01*
X0261182Y0073320D01*
X0261099Y0073398D01*
X0261019Y0073478D01*
X0260941Y0073561D01*
X0260867Y0073646D01*
X0260796Y0073734D01*
X0260727Y0073825D01*
X0260662Y0073918D01*
X0260601Y0074013D01*
X0260542Y0074110D01*
X0260487Y0074209D01*
X0260436Y0074310D01*
X0260388Y0074413D01*
X0260344Y0074517D01*
X0260303Y0074623D01*
X0260266Y0074730D01*
X0260233Y0074839D01*
X0260203Y0074948D01*
X0260178Y0075059D01*
X0260156Y0075170D01*
X0260139Y0075282D01*
X0260125Y0075394D01*
X0260115Y0075507D01*
X0260109Y0075621D01*
X0260107Y0075734D01*
X0283396Y0022335D02*
X0283398Y0022488D01*
X0283404Y0022642D01*
X0283414Y0022795D01*
X0283428Y0022947D01*
X0283446Y0023100D01*
X0283468Y0023251D01*
X0283493Y0023402D01*
X0283523Y0023553D01*
X0283557Y0023703D01*
X0283594Y0023851D01*
X0283635Y0023999D01*
X0283680Y0024145D01*
X0283729Y0024291D01*
X0283782Y0024435D01*
X0283838Y0024577D01*
X0283898Y0024718D01*
X0283962Y0024858D01*
X0284029Y0024996D01*
X0284100Y0025132D01*
X0284175Y0025266D01*
X0284252Y0025398D01*
X0284334Y0025528D01*
X0284418Y0025656D01*
X0284506Y0025782D01*
X0284597Y0025905D01*
X0284691Y0026026D01*
X0284789Y0026144D01*
X0284889Y0026260D01*
X0284993Y0026373D01*
X0285099Y0026484D01*
X0285208Y0026592D01*
X0285320Y0026697D01*
X0285434Y0026798D01*
X0285552Y0026897D01*
X0285671Y0026993D01*
X0285793Y0027086D01*
X0285918Y0027175D01*
X0286045Y0027262D01*
X0286174Y0027344D01*
X0286305Y0027424D01*
X0286438Y0027500D01*
X0286573Y0027573D01*
X0286710Y0027642D01*
X0286849Y0027707D01*
X0286989Y0027769D01*
X0287131Y0027827D01*
X0287274Y0027882D01*
X0287419Y0027933D01*
X0287565Y0027980D01*
X0287712Y0028023D01*
X0287860Y0028062D01*
X0288009Y0028098D01*
X0288159Y0028129D01*
X0288310Y0028157D01*
X0288461Y0028181D01*
X0288614Y0028201D01*
X0288766Y0028217D01*
X0288919Y0028229D01*
X0289072Y0028237D01*
X0289225Y0028241D01*
X0289379Y0028241D01*
X0289532Y0028237D01*
X0289685Y0028229D01*
X0289838Y0028217D01*
X0289990Y0028201D01*
X0290143Y0028181D01*
X0290294Y0028157D01*
X0290445Y0028129D01*
X0290595Y0028098D01*
X0290744Y0028062D01*
X0290892Y0028023D01*
X0291039Y0027980D01*
X0291185Y0027933D01*
X0291330Y0027882D01*
X0291473Y0027827D01*
X0291615Y0027769D01*
X0291755Y0027707D01*
X0291894Y0027642D01*
X0292031Y0027573D01*
X0292166Y0027500D01*
X0292299Y0027424D01*
X0292430Y0027344D01*
X0292559Y0027262D01*
X0292686Y0027175D01*
X0292811Y0027086D01*
X0292933Y0026993D01*
X0293052Y0026897D01*
X0293170Y0026798D01*
X0293284Y0026697D01*
X0293396Y0026592D01*
X0293505Y0026484D01*
X0293611Y0026373D01*
X0293715Y0026260D01*
X0293815Y0026144D01*
X0293913Y0026026D01*
X0294007Y0025905D01*
X0294098Y0025782D01*
X0294186Y0025656D01*
X0294270Y0025528D01*
X0294352Y0025398D01*
X0294429Y0025266D01*
X0294504Y0025132D01*
X0294575Y0024996D01*
X0294642Y0024858D01*
X0294706Y0024718D01*
X0294766Y0024577D01*
X0294822Y0024435D01*
X0294875Y0024291D01*
X0294924Y0024145D01*
X0294969Y0023999D01*
X0295010Y0023851D01*
X0295047Y0023703D01*
X0295081Y0023553D01*
X0295111Y0023402D01*
X0295136Y0023251D01*
X0295158Y0023100D01*
X0295176Y0022947D01*
X0295190Y0022795D01*
X0295200Y0022642D01*
X0295206Y0022488D01*
X0295208Y0022335D01*
X0295206Y0022182D01*
X0295200Y0022028D01*
X0295190Y0021875D01*
X0295176Y0021723D01*
X0295158Y0021570D01*
X0295136Y0021419D01*
X0295111Y0021268D01*
X0295081Y0021117D01*
X0295047Y0020967D01*
X0295010Y0020819D01*
X0294969Y0020671D01*
X0294924Y0020525D01*
X0294875Y0020379D01*
X0294822Y0020235D01*
X0294766Y0020093D01*
X0294706Y0019952D01*
X0294642Y0019812D01*
X0294575Y0019674D01*
X0294504Y0019538D01*
X0294429Y0019404D01*
X0294352Y0019272D01*
X0294270Y0019142D01*
X0294186Y0019014D01*
X0294098Y0018888D01*
X0294007Y0018765D01*
X0293913Y0018644D01*
X0293815Y0018526D01*
X0293715Y0018410D01*
X0293611Y0018297D01*
X0293505Y0018186D01*
X0293396Y0018078D01*
X0293284Y0017973D01*
X0293170Y0017872D01*
X0293052Y0017773D01*
X0292933Y0017677D01*
X0292811Y0017584D01*
X0292686Y0017495D01*
X0292559Y0017408D01*
X0292430Y0017326D01*
X0292299Y0017246D01*
X0292166Y0017170D01*
X0292031Y0017097D01*
X0291894Y0017028D01*
X0291755Y0016963D01*
X0291615Y0016901D01*
X0291473Y0016843D01*
X0291330Y0016788D01*
X0291185Y0016737D01*
X0291039Y0016690D01*
X0290892Y0016647D01*
X0290744Y0016608D01*
X0290595Y0016572D01*
X0290445Y0016541D01*
X0290294Y0016513D01*
X0290143Y0016489D01*
X0289990Y0016469D01*
X0289838Y0016453D01*
X0289685Y0016441D01*
X0289532Y0016433D01*
X0289379Y0016429D01*
X0289225Y0016429D01*
X0289072Y0016433D01*
X0288919Y0016441D01*
X0288766Y0016453D01*
X0288614Y0016469D01*
X0288461Y0016489D01*
X0288310Y0016513D01*
X0288159Y0016541D01*
X0288009Y0016572D01*
X0287860Y0016608D01*
X0287712Y0016647D01*
X0287565Y0016690D01*
X0287419Y0016737D01*
X0287274Y0016788D01*
X0287131Y0016843D01*
X0286989Y0016901D01*
X0286849Y0016963D01*
X0286710Y0017028D01*
X0286573Y0017097D01*
X0286438Y0017170D01*
X0286305Y0017246D01*
X0286174Y0017326D01*
X0286045Y0017408D01*
X0285918Y0017495D01*
X0285793Y0017584D01*
X0285671Y0017677D01*
X0285552Y0017773D01*
X0285434Y0017872D01*
X0285320Y0017973D01*
X0285208Y0018078D01*
X0285099Y0018186D01*
X0284993Y0018297D01*
X0284889Y0018410D01*
X0284789Y0018526D01*
X0284691Y0018644D01*
X0284597Y0018765D01*
X0284506Y0018888D01*
X0284418Y0019014D01*
X0284334Y0019142D01*
X0284252Y0019272D01*
X0284175Y0019404D01*
X0284100Y0019538D01*
X0284029Y0019674D01*
X0283962Y0019812D01*
X0283898Y0019952D01*
X0283838Y0020093D01*
X0283782Y0020235D01*
X0283729Y0020379D01*
X0283680Y0020525D01*
X0283635Y0020671D01*
X0283594Y0020819D01*
X0283557Y0020967D01*
X0283523Y0021117D01*
X0283493Y0021268D01*
X0283468Y0021419D01*
X0283446Y0021570D01*
X0283428Y0021723D01*
X0283414Y0021875D01*
X0283404Y0022028D01*
X0283398Y0022182D01*
X0283396Y0022335D01*
X0283396Y0183752D02*
X0283398Y0183905D01*
X0283404Y0184059D01*
X0283414Y0184212D01*
X0283428Y0184364D01*
X0283446Y0184517D01*
X0283468Y0184668D01*
X0283493Y0184819D01*
X0283523Y0184970D01*
X0283557Y0185120D01*
X0283594Y0185268D01*
X0283635Y0185416D01*
X0283680Y0185562D01*
X0283729Y0185708D01*
X0283782Y0185852D01*
X0283838Y0185994D01*
X0283898Y0186135D01*
X0283962Y0186275D01*
X0284029Y0186413D01*
X0284100Y0186549D01*
X0284175Y0186683D01*
X0284252Y0186815D01*
X0284334Y0186945D01*
X0284418Y0187073D01*
X0284506Y0187199D01*
X0284597Y0187322D01*
X0284691Y0187443D01*
X0284789Y0187561D01*
X0284889Y0187677D01*
X0284993Y0187790D01*
X0285099Y0187901D01*
X0285208Y0188009D01*
X0285320Y0188114D01*
X0285434Y0188215D01*
X0285552Y0188314D01*
X0285671Y0188410D01*
X0285793Y0188503D01*
X0285918Y0188592D01*
X0286045Y0188679D01*
X0286174Y0188761D01*
X0286305Y0188841D01*
X0286438Y0188917D01*
X0286573Y0188990D01*
X0286710Y0189059D01*
X0286849Y0189124D01*
X0286989Y0189186D01*
X0287131Y0189244D01*
X0287274Y0189299D01*
X0287419Y0189350D01*
X0287565Y0189397D01*
X0287712Y0189440D01*
X0287860Y0189479D01*
X0288009Y0189515D01*
X0288159Y0189546D01*
X0288310Y0189574D01*
X0288461Y0189598D01*
X0288614Y0189618D01*
X0288766Y0189634D01*
X0288919Y0189646D01*
X0289072Y0189654D01*
X0289225Y0189658D01*
X0289379Y0189658D01*
X0289532Y0189654D01*
X0289685Y0189646D01*
X0289838Y0189634D01*
X0289990Y0189618D01*
X0290143Y0189598D01*
X0290294Y0189574D01*
X0290445Y0189546D01*
X0290595Y0189515D01*
X0290744Y0189479D01*
X0290892Y0189440D01*
X0291039Y0189397D01*
X0291185Y0189350D01*
X0291330Y0189299D01*
X0291473Y0189244D01*
X0291615Y0189186D01*
X0291755Y0189124D01*
X0291894Y0189059D01*
X0292031Y0188990D01*
X0292166Y0188917D01*
X0292299Y0188841D01*
X0292430Y0188761D01*
X0292559Y0188679D01*
X0292686Y0188592D01*
X0292811Y0188503D01*
X0292933Y0188410D01*
X0293052Y0188314D01*
X0293170Y0188215D01*
X0293284Y0188114D01*
X0293396Y0188009D01*
X0293505Y0187901D01*
X0293611Y0187790D01*
X0293715Y0187677D01*
X0293815Y0187561D01*
X0293913Y0187443D01*
X0294007Y0187322D01*
X0294098Y0187199D01*
X0294186Y0187073D01*
X0294270Y0186945D01*
X0294352Y0186815D01*
X0294429Y0186683D01*
X0294504Y0186549D01*
X0294575Y0186413D01*
X0294642Y0186275D01*
X0294706Y0186135D01*
X0294766Y0185994D01*
X0294822Y0185852D01*
X0294875Y0185708D01*
X0294924Y0185562D01*
X0294969Y0185416D01*
X0295010Y0185268D01*
X0295047Y0185120D01*
X0295081Y0184970D01*
X0295111Y0184819D01*
X0295136Y0184668D01*
X0295158Y0184517D01*
X0295176Y0184364D01*
X0295190Y0184212D01*
X0295200Y0184059D01*
X0295206Y0183905D01*
X0295208Y0183752D01*
X0295206Y0183599D01*
X0295200Y0183445D01*
X0295190Y0183292D01*
X0295176Y0183140D01*
X0295158Y0182987D01*
X0295136Y0182836D01*
X0295111Y0182685D01*
X0295081Y0182534D01*
X0295047Y0182384D01*
X0295010Y0182236D01*
X0294969Y0182088D01*
X0294924Y0181942D01*
X0294875Y0181796D01*
X0294822Y0181652D01*
X0294766Y0181510D01*
X0294706Y0181369D01*
X0294642Y0181229D01*
X0294575Y0181091D01*
X0294504Y0180955D01*
X0294429Y0180821D01*
X0294352Y0180689D01*
X0294270Y0180559D01*
X0294186Y0180431D01*
X0294098Y0180305D01*
X0294007Y0180182D01*
X0293913Y0180061D01*
X0293815Y0179943D01*
X0293715Y0179827D01*
X0293611Y0179714D01*
X0293505Y0179603D01*
X0293396Y0179495D01*
X0293284Y0179390D01*
X0293170Y0179289D01*
X0293052Y0179190D01*
X0292933Y0179094D01*
X0292811Y0179001D01*
X0292686Y0178912D01*
X0292559Y0178825D01*
X0292430Y0178743D01*
X0292299Y0178663D01*
X0292166Y0178587D01*
X0292031Y0178514D01*
X0291894Y0178445D01*
X0291755Y0178380D01*
X0291615Y0178318D01*
X0291473Y0178260D01*
X0291330Y0178205D01*
X0291185Y0178154D01*
X0291039Y0178107D01*
X0290892Y0178064D01*
X0290744Y0178025D01*
X0290595Y0177989D01*
X0290445Y0177958D01*
X0290294Y0177930D01*
X0290143Y0177906D01*
X0289990Y0177886D01*
X0289838Y0177870D01*
X0289685Y0177858D01*
X0289532Y0177850D01*
X0289379Y0177846D01*
X0289225Y0177846D01*
X0289072Y0177850D01*
X0288919Y0177858D01*
X0288766Y0177870D01*
X0288614Y0177886D01*
X0288461Y0177906D01*
X0288310Y0177930D01*
X0288159Y0177958D01*
X0288009Y0177989D01*
X0287860Y0178025D01*
X0287712Y0178064D01*
X0287565Y0178107D01*
X0287419Y0178154D01*
X0287274Y0178205D01*
X0287131Y0178260D01*
X0286989Y0178318D01*
X0286849Y0178380D01*
X0286710Y0178445D01*
X0286573Y0178514D01*
X0286438Y0178587D01*
X0286305Y0178663D01*
X0286174Y0178743D01*
X0286045Y0178825D01*
X0285918Y0178912D01*
X0285793Y0179001D01*
X0285671Y0179094D01*
X0285552Y0179190D01*
X0285434Y0179289D01*
X0285320Y0179390D01*
X0285208Y0179495D01*
X0285099Y0179603D01*
X0284993Y0179714D01*
X0284889Y0179827D01*
X0284789Y0179943D01*
X0284691Y0180061D01*
X0284597Y0180182D01*
X0284506Y0180305D01*
X0284418Y0180431D01*
X0284334Y0180559D01*
X0284252Y0180689D01*
X0284175Y0180821D01*
X0284100Y0180955D01*
X0284029Y0181091D01*
X0283962Y0181229D01*
X0283898Y0181369D01*
X0283838Y0181510D01*
X0283782Y0181652D01*
X0283729Y0181796D01*
X0283680Y0181942D01*
X0283635Y0182088D01*
X0283594Y0182236D01*
X0283557Y0182384D01*
X0283523Y0182534D01*
X0283493Y0182685D01*
X0283468Y0182836D01*
X0283446Y0182987D01*
X0283428Y0183140D01*
X0283414Y0183292D01*
X0283404Y0183445D01*
X0283398Y0183599D01*
X0283396Y0183752D01*
D11*
X0213220Y0067316D02*
X0211085Y0065181D01*
X0208950Y0067316D01*
X0208950Y0060911D01*
X0206775Y0064113D02*
X0202504Y0064113D01*
X0203572Y0060911D02*
X0203572Y0067316D01*
X0206775Y0064113D01*
X0213220Y0060911D02*
X0213220Y0067316D01*
X0206775Y0054681D02*
X0206775Y0051478D01*
X0205707Y0050411D01*
X0204639Y0051478D01*
X0203572Y0050411D01*
X0202504Y0051478D01*
X0202504Y0054681D01*
X0200329Y0054681D02*
X0200329Y0051478D01*
X0199261Y0050411D01*
X0198194Y0051478D01*
X0197126Y0050411D01*
X0196059Y0051478D01*
X0196059Y0054681D01*
X0193884Y0054681D02*
X0193884Y0051478D01*
X0192816Y0050411D01*
X0191748Y0051478D01*
X0190681Y0050411D01*
X0189613Y0051478D01*
X0189613Y0054681D01*
X0187438Y0051478D02*
X0186370Y0051478D01*
X0186370Y0050411D01*
X0187438Y0050411D01*
X0187438Y0051478D01*
X0184215Y0050411D02*
X0181013Y0050411D01*
X0179945Y0051478D01*
X0181013Y0052546D01*
X0183148Y0052546D01*
X0184215Y0053613D01*
X0183148Y0054681D01*
X0179945Y0054681D01*
X0177770Y0054681D02*
X0174567Y0054681D01*
X0173499Y0053613D01*
X0173499Y0051478D01*
X0174567Y0050411D01*
X0177770Y0050411D01*
X0177770Y0048275D02*
X0177770Y0054681D01*
X0171324Y0054681D02*
X0170257Y0054681D01*
X0170257Y0050411D01*
X0171324Y0050411D02*
X0169189Y0050411D01*
X0167027Y0050411D02*
X0167027Y0054681D01*
X0163825Y0054681D01*
X0162757Y0053613D01*
X0162757Y0050411D01*
X0160582Y0050411D02*
X0157379Y0050411D01*
X0156311Y0051478D01*
X0156311Y0053613D01*
X0157379Y0054681D01*
X0160582Y0054681D01*
X0160582Y0048275D01*
X0154136Y0051478D02*
X0154136Y0053613D01*
X0153069Y0054681D01*
X0150934Y0054681D01*
X0149866Y0053613D01*
X0149866Y0051478D01*
X0150934Y0050411D01*
X0153069Y0050411D01*
X0154136Y0051478D01*
X0147691Y0050411D02*
X0145556Y0050411D01*
X0146623Y0050411D02*
X0146623Y0054681D01*
X0147691Y0054681D01*
X0146623Y0056816D02*
X0146623Y0057884D01*
X0143394Y0054681D02*
X0140191Y0054681D01*
X0139123Y0053613D01*
X0139123Y0050411D01*
X0135881Y0051478D02*
X0134813Y0050411D01*
X0135881Y0051478D02*
X0135881Y0055749D01*
X0136948Y0054681D02*
X0134813Y0054681D01*
X0132651Y0051478D02*
X0131584Y0051478D01*
X0131584Y0050411D01*
X0132651Y0050411D01*
X0132651Y0051478D01*
X0129429Y0051478D02*
X0129429Y0053613D01*
X0128361Y0054681D01*
X0126226Y0054681D01*
X0125158Y0053613D01*
X0125158Y0051478D01*
X0126226Y0050411D01*
X0128361Y0050411D01*
X0129429Y0051478D01*
X0122983Y0050411D02*
X0122983Y0054681D01*
X0122983Y0052546D02*
X0120848Y0054681D01*
X0119780Y0054681D01*
X0117612Y0053613D02*
X0117612Y0051478D01*
X0116544Y0050411D01*
X0113341Y0050411D01*
X0113341Y0049343D02*
X0113341Y0054681D01*
X0116544Y0054681D01*
X0117612Y0053613D01*
X0115477Y0048275D02*
X0114409Y0048275D01*
X0113341Y0049343D01*
X0115483Y0060911D02*
X0117618Y0060911D01*
X0118686Y0061978D01*
X0118686Y0064113D02*
X0116551Y0065181D01*
X0115483Y0065181D01*
X0114416Y0064113D01*
X0114416Y0061978D01*
X0115483Y0060911D01*
X0112241Y0061978D02*
X0111173Y0060911D01*
X0109038Y0060911D01*
X0107970Y0061978D01*
X0112241Y0061978D02*
X0112241Y0066249D01*
X0111173Y0067316D01*
X0109038Y0067316D01*
X0107970Y0066249D01*
X0114416Y0067316D02*
X0118686Y0067316D01*
X0118686Y0064113D01*
X0120841Y0061978D02*
X0120841Y0060911D01*
X0121909Y0060911D01*
X0121909Y0061978D01*
X0120841Y0061978D01*
X0124084Y0060911D02*
X0128354Y0060911D01*
X0124084Y0065181D01*
X0124084Y0066249D01*
X0125152Y0067316D01*
X0127287Y0067316D01*
X0128354Y0066249D01*
X0136955Y0061978D02*
X0136955Y0060911D01*
X0138023Y0060911D01*
X0138023Y0061978D01*
X0136955Y0061978D01*
X0140198Y0065181D02*
X0142333Y0060911D01*
X0144468Y0065181D01*
X0146643Y0064113D02*
X0146643Y0063046D01*
X0150914Y0063046D01*
X0150914Y0064113D02*
X0150914Y0061978D01*
X0149846Y0060911D01*
X0147711Y0060911D01*
X0146643Y0064113D02*
X0147711Y0065181D01*
X0149846Y0065181D01*
X0150914Y0064113D01*
X0153082Y0065181D02*
X0154150Y0065181D01*
X0156285Y0063046D01*
X0156285Y0060911D02*
X0156285Y0065181D01*
X0164905Y0065181D02*
X0168108Y0065181D01*
X0169176Y0064113D01*
X0169176Y0061978D01*
X0168108Y0060911D01*
X0164905Y0060911D01*
X0164905Y0067316D01*
X0171344Y0065181D02*
X0172412Y0065181D01*
X0174547Y0063046D01*
X0174547Y0060911D02*
X0174547Y0065181D01*
X0176722Y0064113D02*
X0176722Y0060911D01*
X0179925Y0060911D01*
X0180993Y0061978D01*
X0179925Y0063046D01*
X0176722Y0063046D01*
X0176722Y0064113D02*
X0177790Y0065181D01*
X0179925Y0065181D01*
X0183168Y0064113D02*
X0183168Y0061978D01*
X0184235Y0060911D01*
X0186370Y0060911D01*
X0187438Y0061978D01*
X0187438Y0064113D01*
X0186370Y0065181D01*
X0184235Y0065181D01*
X0183168Y0064113D01*
X0189613Y0063046D02*
X0189613Y0061978D01*
X0190681Y0060911D01*
X0193884Y0060911D01*
X0193884Y0067316D01*
X0190681Y0067316D01*
X0189613Y0066249D01*
X0189613Y0065181D01*
X0190681Y0064113D01*
X0193884Y0064113D01*
X0190681Y0064113D02*
X0189613Y0063046D01*
X0170257Y0057884D02*
X0170257Y0056816D01*
X0143394Y0054681D02*
X0143394Y0050411D01*
X0099350Y0064113D02*
X0095079Y0064113D01*
X0086459Y0066249D02*
X0085391Y0067316D01*
X0083256Y0067316D01*
X0082188Y0066249D01*
X0082188Y0065181D01*
X0086459Y0060911D01*
X0082188Y0060911D01*
X0080013Y0061978D02*
X0075743Y0066249D01*
X0075743Y0061978D01*
X0076810Y0060911D01*
X0078946Y0060911D01*
X0080013Y0061978D01*
X0080013Y0066249D01*
X0078946Y0067316D01*
X0076810Y0067316D01*
X0075743Y0066249D01*
X0073568Y0065181D02*
X0071432Y0067316D01*
X0071432Y0060911D01*
X0069297Y0060911D02*
X0073568Y0060911D01*
X0067122Y0061978D02*
X0066055Y0060911D01*
X0063919Y0060911D01*
X0062852Y0061978D01*
X0062852Y0066249D01*
X0063919Y0067316D01*
X0066055Y0067316D01*
X0067122Y0066249D01*
X0067122Y0065181D01*
X0066055Y0064113D01*
X0062852Y0064113D01*
D12*
X0134337Y0046352D02*
X0137407Y0046352D01*
X0137407Y0041748D01*
X0134337Y0041748D01*
X0138941Y0042515D02*
X0138941Y0045584D01*
X0139709Y0046352D01*
X0142011Y0046352D01*
X0142011Y0041748D01*
X0139709Y0041748D01*
X0138941Y0042515D01*
X0137407Y0044050D02*
X0135872Y0044050D01*
X0143545Y0046352D02*
X0145080Y0046352D01*
X0144313Y0046352D02*
X0144313Y0041748D01*
X0145080Y0041748D02*
X0143545Y0041748D01*
X0146615Y0042515D02*
X0147382Y0041748D01*
X0148917Y0041748D01*
X0149684Y0042515D01*
X0148917Y0044050D02*
X0147382Y0044050D01*
X0146615Y0043282D01*
X0146615Y0042515D01*
X0148917Y0044050D02*
X0149684Y0044817D01*
X0149684Y0045584D01*
X0148917Y0046352D01*
X0147382Y0046352D01*
X0146615Y0045584D01*
X0155822Y0045584D02*
X0155822Y0044050D01*
X0156590Y0043282D01*
X0158892Y0043282D01*
X0158892Y0041748D02*
X0158892Y0046352D01*
X0156590Y0046352D01*
X0155822Y0045584D01*
X0157357Y0043282D02*
X0155822Y0041748D01*
X0160426Y0041748D02*
X0160426Y0044817D01*
X0161961Y0046352D01*
X0163496Y0044817D01*
X0163496Y0041748D01*
X0165030Y0041748D02*
X0168100Y0041748D01*
X0168100Y0046352D01*
X0165030Y0046352D01*
X0163496Y0044050D02*
X0160426Y0044050D01*
X0166565Y0044050D02*
X0168100Y0044050D01*
X0169634Y0044050D02*
X0170402Y0043282D01*
X0172704Y0043282D01*
X0172704Y0041748D02*
X0172704Y0046352D01*
X0170402Y0046352D01*
X0169634Y0045584D01*
X0169634Y0044050D01*
X0171169Y0043282D02*
X0169634Y0041748D01*
X0170835Y0008163D02*
X0169301Y0006628D01*
X0167766Y0008163D01*
X0167766Y0003559D01*
X0166231Y0005861D02*
X0163162Y0005861D01*
X0163930Y0003559D02*
X0163930Y0008163D01*
X0166231Y0005861D01*
X0170835Y0003559D02*
X0170835Y0008163D01*
X0157024Y0008163D02*
X0157024Y0003559D01*
X0154722Y0003559D01*
X0153954Y0004326D01*
X0153954Y0005093D01*
X0154722Y0005861D01*
X0157024Y0005861D01*
X0154722Y0005861D02*
X0153954Y0006628D01*
X0153954Y0007395D01*
X0154722Y0008163D01*
X0157024Y0008163D01*
X0152420Y0005861D02*
X0152420Y0004326D01*
X0151652Y0003559D01*
X0150118Y0003559D01*
X0149350Y0004326D01*
X0149350Y0005861D01*
X0150118Y0006628D01*
X0151652Y0006628D01*
X0152420Y0005861D01*
X0147816Y0004326D02*
X0147048Y0003559D01*
X0144747Y0003559D01*
X0144747Y0005861D01*
X0145514Y0006628D01*
X0147048Y0006628D01*
X0147048Y0005093D02*
X0144747Y0005093D01*
X0143212Y0005093D02*
X0141677Y0006628D01*
X0140910Y0006628D01*
X0139375Y0005861D02*
X0138608Y0006628D01*
X0136306Y0006628D01*
X0136306Y0008163D02*
X0136306Y0003559D01*
X0138608Y0003559D01*
X0139375Y0004326D01*
X0139375Y0005861D01*
X0143212Y0006628D02*
X0143212Y0003559D01*
X0147048Y0005093D02*
X0147816Y0004326D01*
X0274185Y0071879D02*
X0278789Y0071879D01*
X0277254Y0073414D01*
X0278789Y0074948D01*
X0274185Y0074948D01*
X0274185Y0076483D02*
X0274185Y0078018D01*
X0274185Y0077250D02*
X0278789Y0077250D01*
X0278789Y0076483D02*
X0278789Y0078018D01*
X0278021Y0079552D02*
X0274952Y0079552D01*
X0274185Y0080320D01*
X0274185Y0081854D01*
X0274952Y0082622D01*
X0275719Y0084156D02*
X0275719Y0086458D01*
X0276487Y0087226D01*
X0278021Y0087226D01*
X0278789Y0086458D01*
X0278789Y0084156D01*
X0274185Y0084156D01*
X0275719Y0085691D02*
X0274185Y0087226D01*
X0274952Y0088760D02*
X0274185Y0089527D01*
X0274185Y0091062D01*
X0274952Y0091829D01*
X0278021Y0091829D01*
X0278789Y0091062D01*
X0278789Y0089527D01*
X0278021Y0088760D01*
X0274952Y0088760D01*
X0274952Y0093364D02*
X0274185Y0094131D01*
X0274185Y0095666D01*
X0274952Y0096433D01*
X0275719Y0096433D01*
X0276487Y0095666D01*
X0276487Y0094131D01*
X0277254Y0093364D01*
X0278021Y0093364D01*
X0278789Y0094131D01*
X0278789Y0095666D01*
X0278021Y0096433D01*
X0278789Y0097968D02*
X0274185Y0097968D01*
X0274185Y0100270D01*
X0274952Y0101037D01*
X0278021Y0101037D01*
X0278789Y0100270D01*
X0278789Y0097968D01*
X0278021Y0082622D02*
X0278789Y0081854D01*
X0278789Y0080320D01*
X0278021Y0079552D01*
X0197023Y0115126D02*
X0193767Y0118381D01*
X0192140Y0116753D01*
X0192140Y0115668D01*
X0193225Y0114583D01*
X0194310Y0114583D01*
X0195938Y0116211D01*
X0194853Y0115126D02*
X0194853Y0112955D01*
X0193225Y0112413D02*
X0192682Y0112955D01*
X0191597Y0112955D01*
X0190512Y0111870D01*
X0190512Y0110785D01*
X0191055Y0110242D01*
X0192140Y0110242D01*
X0193225Y0111327D01*
X0193225Y0112413D01*
X0191597Y0112955D02*
X0191597Y0114040D01*
X0191054Y0114583D01*
X0189969Y0114583D01*
X0188884Y0113498D01*
X0188884Y0112413D01*
X0189427Y0111870D01*
X0190512Y0111870D01*
X0173501Y0113992D02*
X0170246Y0117248D01*
X0168618Y0115620D01*
X0168618Y0114535D01*
X0169703Y0113450D01*
X0170788Y0113450D01*
X0172416Y0115078D01*
X0171331Y0113992D02*
X0171331Y0111822D01*
X0169703Y0111280D02*
X0169703Y0110194D01*
X0168618Y0109109D01*
X0167533Y0109109D01*
X0165362Y0111280D01*
X0165362Y0112365D01*
X0166448Y0113450D01*
X0167533Y0113450D01*
X0168075Y0112907D01*
X0168075Y0111822D01*
X0166448Y0110194D01*
X0194770Y0137908D02*
X0195312Y0137365D01*
X0194770Y0137908D02*
X0190429Y0137908D01*
X0189887Y0138451D01*
X0192057Y0140621D01*
X0193685Y0141163D02*
X0194770Y0140078D01*
X0195855Y0140078D01*
X0197483Y0141706D01*
X0198568Y0140621D02*
X0195312Y0143876D01*
X0193685Y0142249D01*
X0193685Y0141163D01*
X0196398Y0140621D02*
X0196398Y0138451D01*
X0257625Y0139384D02*
X0260694Y0139384D01*
X0258392Y0141686D01*
X0258392Y0137082D01*
X0262229Y0137082D02*
X0265298Y0137082D01*
X0263763Y0137082D02*
X0263763Y0141686D01*
X0265298Y0140152D01*
X0266833Y0140919D02*
X0266833Y0139384D01*
X0267600Y0138617D01*
X0269902Y0138617D01*
X0268367Y0138617D02*
X0266833Y0137082D01*
X0269902Y0137082D02*
X0269902Y0141686D01*
X0267600Y0141686D01*
X0266833Y0140919D01*
X0266152Y0145627D02*
X0267687Y0147162D01*
X0266920Y0147162D02*
X0269222Y0147162D01*
X0269222Y0145627D02*
X0269222Y0150231D01*
X0266920Y0150231D01*
X0266152Y0149464D01*
X0266152Y0147929D01*
X0266920Y0147162D01*
X0264618Y0147929D02*
X0262316Y0147929D01*
X0261548Y0147162D01*
X0261548Y0146394D01*
X0262316Y0145627D01*
X0263850Y0145627D01*
X0264618Y0146394D01*
X0264618Y0147929D01*
X0263083Y0149464D01*
X0261548Y0150231D01*
X0085976Y0150880D02*
X0085976Y0149346D01*
X0085209Y0148578D01*
X0082139Y0148578D01*
X0081372Y0149346D01*
X0081372Y0150880D01*
X0082139Y0151648D01*
X0081372Y0153182D02*
X0081372Y0156252D01*
X0081372Y0154717D02*
X0085976Y0154717D01*
X0084441Y0153182D01*
X0085209Y0151648D02*
X0085976Y0150880D01*
X0083674Y0157786D02*
X0083674Y0160855D01*
X0081372Y0160088D02*
X0085976Y0160088D01*
X0083674Y0157786D01*
X0073771Y0156589D02*
X0073771Y0155054D01*
X0073004Y0154287D01*
X0069935Y0154287D01*
X0069167Y0155054D01*
X0069167Y0156589D01*
X0069935Y0157356D01*
X0069167Y0158891D02*
X0072237Y0161960D01*
X0073004Y0161960D01*
X0073771Y0161193D01*
X0073771Y0159658D01*
X0073004Y0158891D01*
X0073004Y0157356D02*
X0073771Y0156589D01*
X0069167Y0158891D02*
X0069167Y0161960D01*
D13*
X0248394Y0118530D03*
D14*
X0253709Y0121699D02*
X0301347Y0121699D01*
X0301347Y0111443D01*
X0300950Y0110929D01*
X0300566Y0110406D01*
X0300195Y0109874D01*
X0299836Y0109334D01*
X0299492Y0108784D01*
X0299160Y0108226D01*
X0298842Y0107661D01*
X0298539Y0107087D01*
X0298249Y0106507D01*
X0297973Y0105920D01*
X0297712Y0105326D01*
X0297466Y0104726D01*
X0297234Y0104120D01*
X0297017Y0103508D01*
X0296815Y0102892D01*
X0296628Y0102271D01*
X0296456Y0101645D01*
X0296299Y0101015D01*
X0296158Y0100382D01*
X0296032Y0099746D01*
X0295922Y0099106D01*
X0295828Y0098465D01*
X0295749Y0097821D01*
X0295686Y0097175D01*
X0295638Y0096528D01*
X0295607Y0095880D01*
X0295591Y0095231D01*
X0295591Y0094583D01*
X0295607Y0093934D01*
X0295638Y0093286D01*
X0295686Y0092639D01*
X0295749Y0091993D01*
X0295828Y0091349D01*
X0295922Y0090708D01*
X0296032Y0090068D01*
X0296158Y0089432D01*
X0296299Y0088799D01*
X0296456Y0088169D01*
X0296628Y0087543D01*
X0296815Y0086922D01*
X0297017Y0086306D01*
X0297234Y0085694D01*
X0297466Y0085088D01*
X0297712Y0084488D01*
X0297973Y0083894D01*
X0298249Y0083307D01*
X0298539Y0082727D01*
X0298842Y0082153D01*
X0299160Y0081588D01*
X0299492Y0081030D01*
X0299836Y0080480D01*
X0300195Y0079940D01*
X0300566Y0079408D01*
X0300950Y0078885D01*
X0301347Y0078371D01*
X0301347Y0078372D02*
X0301347Y0069317D01*
X0301347Y0069140D02*
X0253709Y0069140D01*
X0253709Y0121699D01*
D15*
X0236592Y0094039D02*
X0237209Y0093421D01*
X0237209Y0090953D01*
X0236592Y0090335D01*
X0235358Y0090335D01*
X0234741Y0090953D01*
X0233526Y0090335D02*
X0231057Y0090335D01*
X0229843Y0090335D02*
X0229843Y0090953D01*
X0227374Y0093421D01*
X0227374Y0094039D01*
X0229843Y0094039D01*
X0232292Y0094039D02*
X0233526Y0092804D01*
X0234741Y0093421D02*
X0235358Y0094039D01*
X0236592Y0094039D01*
X0232292Y0094039D02*
X0232292Y0090335D01*
X0207844Y0131514D02*
X0209589Y0133260D01*
X0210448Y0134118D02*
X0212194Y0135864D01*
X0211321Y0134991D02*
X0208702Y0137610D01*
X0210448Y0137610D01*
X0210870Y0138905D02*
X0210870Y0139778D01*
X0211743Y0140651D01*
X0212616Y0140651D01*
X0214362Y0138905D01*
X0214362Y0138032D01*
X0213489Y0137159D01*
X0212616Y0137159D01*
X0207844Y0135005D02*
X0206098Y0135005D01*
X0208716Y0132387D01*
X0169400Y0142040D02*
X0167655Y0140294D01*
X0166782Y0140294D01*
X0165909Y0141167D01*
X0165909Y0142040D01*
X0165050Y0142898D02*
X0164177Y0142898D01*
X0163304Y0143771D01*
X0163304Y0144644D01*
X0163741Y0145080D01*
X0164614Y0145080D01*
X0165923Y0143771D01*
X0165050Y0142898D01*
X0165923Y0143771D02*
X0165923Y0145517D01*
X0165487Y0146826D01*
X0167655Y0143785D02*
X0168527Y0143785D01*
X0169400Y0142912D01*
X0169400Y0142040D01*
X0146520Y0158784D02*
X0145647Y0157911D01*
X0144774Y0157911D01*
X0143915Y0157053D02*
X0140424Y0157053D01*
X0139988Y0157489D01*
X0141733Y0159235D01*
X0143028Y0159657D02*
X0143028Y0160530D01*
X0143901Y0161403D01*
X0144774Y0161403D01*
X0146520Y0159657D01*
X0146520Y0158784D01*
X0144352Y0156616D02*
X0143915Y0157053D01*
X0130111Y0169442D02*
X0130111Y0170315D01*
X0129674Y0170751D01*
X0128801Y0170751D01*
X0127929Y0169878D01*
X0127929Y0169005D01*
X0128365Y0168569D01*
X0129238Y0168569D01*
X0130111Y0169442D01*
X0128801Y0170751D02*
X0128801Y0171624D01*
X0128365Y0172060D01*
X0127492Y0172060D01*
X0126619Y0171188D01*
X0126619Y0170315D01*
X0127056Y0169878D01*
X0127929Y0169878D01*
X0130969Y0171173D02*
X0131842Y0171173D01*
X0132715Y0172046D01*
X0132715Y0172919D01*
X0130969Y0174665D01*
X0130097Y0174665D01*
X0129224Y0173792D01*
X0129224Y0172919D01*
X0117107Y0175812D02*
X0115361Y0174066D01*
X0114488Y0174066D01*
X0113615Y0174939D01*
X0113615Y0175812D01*
X0112320Y0176234D02*
X0110575Y0177980D01*
X0111447Y0177107D02*
X0114066Y0179726D01*
X0114066Y0177980D01*
X0115361Y0177558D02*
X0116234Y0177558D01*
X0117107Y0176685D01*
X0117107Y0175812D01*
X0112370Y0171959D02*
X0110317Y0174012D01*
X0109291Y0172985D01*
X0109291Y0172301D01*
X0109975Y0171617D01*
X0110659Y0171617D01*
X0111686Y0172643D01*
X0111002Y0171959D02*
X0111001Y0170591D01*
X0110286Y0169876D02*
X0108918Y0168508D01*
X0109602Y0169192D02*
X0107550Y0171244D01*
X0108918Y0171244D01*
X0106492Y0169503D02*
X0105808Y0169503D01*
X0105124Y0168818D01*
X0105124Y0168134D01*
X0107861Y0168134D01*
X0107861Y0167450D01*
X0107177Y0166766D01*
X0106492Y0166766D01*
X0105124Y0168134D01*
X0106492Y0169503D02*
X0107861Y0168134D01*
X0104202Y0165015D02*
X0104202Y0164143D01*
X0102456Y0162397D01*
X0101583Y0162397D01*
X0100710Y0163270D01*
X0100710Y0164143D01*
X0100724Y0165874D02*
X0098979Y0167620D01*
X0100724Y0168493D02*
X0098106Y0165874D01*
X0100724Y0165874D02*
X0100724Y0168493D01*
X0102456Y0165888D02*
X0103329Y0165888D01*
X0104202Y0165015D01*
X0116460Y0146430D02*
X0117333Y0146430D01*
X0118206Y0145557D01*
X0118206Y0144684D01*
X0117770Y0144248D01*
X0116897Y0144248D01*
X0115588Y0145557D01*
X0116460Y0146430D02*
X0114715Y0144684D01*
X0114715Y0143811D01*
X0115588Y0142938D01*
X0116460Y0142938D01*
X0117319Y0142080D02*
X0117319Y0141207D01*
X0118192Y0140334D01*
X0119065Y0140334D01*
X0120810Y0142080D01*
X0120810Y0142953D01*
X0119938Y0143825D01*
X0119065Y0143825D01*
X0149114Y0116115D02*
X0149987Y0116988D01*
X0150860Y0116988D01*
X0152605Y0115242D01*
X0152605Y0114369D01*
X0151732Y0113496D01*
X0150860Y0113496D01*
X0150001Y0112638D02*
X0150001Y0111765D01*
X0149128Y0110892D01*
X0148255Y0110892D01*
X0147382Y0111765D01*
X0147382Y0112638D01*
X0147819Y0113074D01*
X0149128Y0113510D01*
X0147819Y0114820D01*
X0146073Y0113074D01*
X0149114Y0115242D02*
X0149114Y0116115D01*
X0147369Y0108187D02*
X0146496Y0108187D01*
X0146496Y0104695D01*
X0145623Y0104695D01*
X0144751Y0105568D01*
X0144751Y0106441D01*
X0146496Y0108187D01*
X0147369Y0108187D02*
X0148242Y0107314D01*
X0148242Y0106441D01*
X0146496Y0104695D01*
X0146918Y0103400D02*
X0148664Y0101654D01*
X0147791Y0102527D02*
X0150410Y0105146D01*
X0150410Y0103400D01*
X0151705Y0102978D02*
X0152578Y0102978D01*
X0153451Y0102105D01*
X0153451Y0101232D01*
X0151705Y0099486D01*
X0150832Y0099486D01*
X0149959Y0100359D01*
X0149959Y0101232D01*
M02*
